# 3ds Max Wavefront OBJ Exporter v0.97b - (c)2007 guruware
# File Created: 16.08.2015 23:10:19

mtllib Meteor_3.mtl

#
# object Meteor_3
#

v  -0.7470 -1.0240 2.7023
v  -2.1454 -0.9565 1.3800
v  -1.0448 -1.7151 2.4660
v  -0.1154 -2.6391 2.2412
v  0.3671 -2.1529 3.4426
v  0.3963 -2.3101 2.5179
v  0.9066 -2.8637 2.3085
v  2.3467 -2.4567 3.6052
v  1.7357 -2.4348 3.7861
v  1.8770 -3.0955 2.3755
v  2.9407 -2.8268 2.2368
v  2.6283 -1.7774 2.6958
v  -2.5014 -1.5107 0.4510
v  -0.9661 -2.3057 1.1138
v  -0.4948 -2.2522 1.3397
v  -0.2046 -2.8418 0.9256
v  1.3371 -3.1291 1.5361
v  0.6199 -3.4244 0.7701
v  2.3195 -3.3480 1.1757
v  1.6144 -3.6116 0.8907
v  3.5460 -2.1482 0.9818
v  -2.6374 -1.5481 -0.7205
v  -1.0890 -1.9867 0.2413
v  -0.4494 -2.2041 -0.0876
v  1.1932 -3.7521 -0.1512
v  0.1204 -3.1841 -0.0383
v  0.6014 -3.3082 -0.9113
v  -0.2837 -2.8111 -1.1248
v  1.7235 -3.2089 -0.9173
v  1.9061 -3.4114 -0.1188
v  3.1721 -2.9690 0.1307
v  3.7514 -2.1801 -0.1957
v  3.2698 -2.7303 -1.0587
v  -1.1806 -1.8524 -1.1584
v  -0.1722 -2.8094 -1.6678
v  -0.8284 -2.2925 -2.2011
v  1.4658 -2.5451 -1.8847
v  0.2115 -2.2917 -2.2071
v  2.3625 -3.2011 -1.2101
v  2.6981 -2.5590 -2.0956
v  -2.7923 -0.9112 -2.4479
v  -1.9210 -2.0024 -2.2529
v  0.5887 -1.6346 -3.2274
v  0.5401 2.8876 2.4405
v  -0.8427 2.7873 2.0553
v  -0.5249 2.1902 3.1388
v  1.0391 2.1927 3.6393
v  1.6968 2.9835 3.1620
v  1.7557 2.4816 3.8365
v  3.0748 2.3110 2.0764
v  2.2259 3.1778 2.0059
v  -2.1323 2.0807 1.8073
v  -0.7136 3.1440 1.6816
v  -2.0492 1.9791 0.8545
v  0.4822 3.3583 1.4313
v  -0.1549 3.7246 0.7448
v  -0.4456 3.1005 1.0449
v  -1.2708 2.7010 0.0814
v  1.8204 2.8312 0.7540
v  3.0000 2.8771 1.0650
v  -2.6696 2.1162 -0.4431
v  -0.8079 3.1952 -0.1113
v  0.5494 3.2208 0.0051
v  0.3011 2.4263 -0.6614
v  1.0799 3.0207 -0.5187
v  2.0189 2.9710 -0.0663
v  3.1477 1.5210 0.2908
v  2.3974 2.2086 -0.5580
v  -2.8779 2.7590 -1.9603
v  -3.3518 1.8824 -1.2842
v  -1.6335 3.0414 -0.9708
v  -0.4569 2.5185 -0.8215
v  -1.8311 2.8011 -2.3808
v  0.6703 2.3390 -1.5516
v  1.7534 1.3493 -2.1121
v  -2.7952 2.7959 -3.0996
v  -0.4605 2.3325 -2.5670
v  0.7792 1.1539 -2.7496
v  -1.5666 0.0873 2.4551
v  -0.2514 -1.2440 3.5605
v  0.6389 -1.1597 3.8787
v  1.9075 -0.6016 3.7627
v  1.2898 -1.4735 3.6552
v  0.9217 0.2621 4.1667
v  -0.5152 0.2321 3.9779
v  2.3108 0.2561 2.1790
v  -2.2115 0.9476 1.1721
v  -0.9926 0.3697 3.4187
v  -1.1733 0.7829 2.3503
v  0.0137 1.1130 3.3340
v  1.8782 0.8803 3.7632
v  1.1609 1.3539 3.8547
v  2.4803 1.2962 2.6360
v  3.1657 -1.0788 1.2461
v  3.1119 -0.8544 0.5388
v  3.7581 -1.7158 -1.1758
v  3.0728 -0.6578 -1.9222
v  3.1322 -1.5260 -2.6094
v  2.8945 0.1509 1.3016
v  2.6986 -0.0543 -1.5400
v  2.2321 0.6935 -2.0187
v  2.7459 0.6613 0.5892
v  3.4859 0.8281 -0.5574
v  2.9709 1.6212 1.1421
v  2.2627 -1.6280 -3.2940
v  2.3885 -0.8954 -3.2195
v  -1.3505 -1.5900 -3.1200
v  -1.8092 -1.1638 -2.8589
v  0.6653 -1.1005 -3.9602
v  0.2123 -0.2463 -4.2257
v  1.3819 0.0724 -3.5463
v  -0.5420 -0.7303 -3.8055
v  -1.1987 -0.3667 -4.0510
v  -2.1179 -0.4573 -3.4867
v  -3.6013 0.1548 -2.7137
v  -3.2596 -0.1815 -1.6601
v  -2.9974 0.3937 -3.4038
v  -0.3690 0.8742 -3.6219
v  -1.3014 0.9870 -3.7429
v  -1.2848 0.5808 -4.1676
v  -2.1803 0.3347 -3.6719
v  -2.5627 1.5473 -3.8119
v  -3.7900 1.1338 -2.7784
v  -0.0694 1.2803 -2.7352
v  -1.3415 2.2196 -3.3959
v  -1.9870 1.9400 -3.7701
v  -3.0466 2.0565 -3.2348
v  -3.7340 2.2402 -2.2038
v  -3.1128 -0.4416 -0.4031
v  -2.1028 -0.4995 0.7298
v  -3.6387 0.8212 -1.7332
v  -3.1273 0.7735 -0.1853
# 132 vertices

vn -0.7724 -0.1906 0.6059
vn -0.8305 -0.3041 0.4666
vn -0.7174 -0.4935 0.4917
vn -0.4700 -0.7931 0.3874
vn -0.3919 -0.6421 0.6589
vn -0.2122 -0.8915 0.4002
vn -0.2791 -0.8984 0.3390
vn 0.6847 -0.3095 0.6598
vn -0.0867 -0.5681 0.8184
vn 0.0124 -0.9449 0.3272
vn 0.7733 -0.5400 0.3322
vn 0.8945 0.1843 0.4073
vn -0.7055 -0.6098 0.3611
vn -0.5993 -0.7893 0.1337
vn -0.4643 -0.8813 0.0878
vn -0.6673 -0.7443 0.0261
vn -0.1443 -0.9232 0.3563
vn -0.3335 -0.9070 0.2570
vn 0.4320 -0.8929 0.1271
vn 0.0786 -0.9622 0.2606
vn 0.9524 -0.1484 0.2664
vn -0.6382 -0.7697 0.0153
vn -0.3911 -0.9143 -0.1055
vn -0.6109 -0.7852 0.1011
vn -0.0670 -0.9857 -0.1547
vn -0.6626 -0.7488 -0.0130
vn -0.1655 -0.8855 -0.4342
vn -0.6733 -0.7391 -0.0214
vn 0.0126 -0.8768 -0.4807
vn 0.3655 -0.9234 -0.1172
vn 0.5934 -0.8034 0.0497
vn 0.9947 -0.0528 0.0887
vn 0.6671 -0.6921 -0.2758
vn -0.4032 -0.9125 0.0695
vn -0.2919 -0.8625 -0.4133
vn -0.2424 -0.9117 -0.3317
vn -0.0421 -0.8129 -0.5808
vn 0.0005 -0.8106 -0.5855
vn 0.2087 -0.9207 -0.3297
vn 0.3466 -0.7378 -0.5792
vn -0.7329 -0.5970 -0.3263
vn -0.4814 -0.8579 -0.1794
vn -0.0569 -0.7918 -0.6082
vn -0.2563 0.8343 0.4881
vn -0.4738 0.5754 0.6666
vn -0.5738 0.4574 0.6793
vn -0.3567 0.4888 0.7961
vn 0.1685 0.8748 0.4543
vn 0.5771 0.3108 0.7552
vn 0.9216 0.1129 0.3714
vn 0.3174 0.9422 0.1075
vn -0.7312 0.3277 0.5983
vn -0.4335 0.8850 0.1700
vn -0.7700 0.6177 0.1601
vn 0.0863 0.9901 0.1105
vn -0.0764 0.9970 0.0127
vn -0.4864 0.8561 0.1746
vn -0.5843 0.7779 0.2311
vn 0.3250 0.9034 -0.2798
vn 0.5962 0.6814 -0.4245
vn -0.6627 0.6034 0.4435
vn -0.1649 0.9173 -0.3625
vn 0.1962 0.9065 -0.3738
vn -0.1208 0.8618 -0.4926
vn 0.1768 0.8606 -0.4776
vn 0.5419 0.8275 -0.1469
vn 0.9232 0.3809 -0.0513
vn 0.6208 0.6579 -0.4264
vn -0.4044 0.8974 0.1766
vn -0.8491 0.3478 0.3975
vn -0.0988 0.9921 0.0774
vn 0.2725 0.9225 -0.2735
vn 0.1910 0.9595 -0.2073
vn 0.2938 0.8227 -0.4867
vn 0.4915 0.6225 -0.6090
vn -0.2549 0.8446 -0.4708
vn 0.4016 0.8132 -0.4212
vn 0.3346 0.6686 -0.6641
vn -0.8051 -0.0583 0.5902
vn -0.5979 -0.3464 0.7228
vn -0.0542 -0.2787 0.9588
vn 0.7578 0.0584 0.6498
vn -0.0823 -0.1107 0.9904
vn 0.0124 0.0684 0.9976
vn -0.4539 0.0998 0.8854
vn 0.9207 0.0466 0.3875
vn -0.8686 -0.0024 0.4955
vn -0.7942 0.0509 0.6055
vn -0.7816 0.2393 0.5761
vn -0.2394 0.2880 0.9272
vn 0.7691 0.0057 0.6391
vn -0.1871 0.1776 0.9662
vn 0.8838 -0.1939 0.4258
vn 0.9087 0.2414 0.3406
vn 0.9501 0.1568 0.2698
vn 0.9879 -0.0033 -0.1552
vn 0.8310 0.4507 -0.3260
vn 0.8255 -0.1244 -0.5505
vn 0.9433 0.1172 0.3105
vn 0.7605 0.2739 -0.5887
vn 0.7106 0.4258 -0.5601
vn 0.9570 0.0341 0.2882
vn 0.9351 0.2986 -0.1907
vn 0.9699 -0.1632 0.1805
vn 0.2445 -0.5717 -0.7832
vn 0.6558 0.3354 -0.6763
vn -0.2520 -0.6760 -0.6925
vn -0.5270 -0.5337 -0.6614
vn 0.0374 -0.5241 -0.8508
vn 0.2355 0.1917 -0.9528
vn 0.4963 0.4144 -0.7629
vn -0.0952 -0.5964 -0.7970
vn -0.2534 -0.3690 -0.8942
vn -0.4643 -0.5427 -0.6999
vn -0.8432 -0.4441 -0.3031
vn -0.9006 -0.4338 0.0259
vn -0.5622 -0.2879 -0.7753
vn 0.3674 0.5979 -0.7125
vn 0.2387 0.4535 -0.8587
vn -0.0859 0.1911 -0.9778
vn -0.3952 -0.2190 -0.8921
vn -0.4187 0.0994 -0.9027
vn -0.9301 0.0381 -0.3653
vn 0.3916 0.5545 -0.7343
vn 0.3749 0.6637 -0.6472
vn 0.0758 0.3993 -0.9137
vn -0.6443 0.3058 -0.7010
vn -0.9113 0.4099 0.0389
vn -0.9100 -0.2173 0.3532
vn -0.9070 -0.0350 0.4197
vn -0.9751 -0.0411 0.2181
vn -0.8693 0.0756 0.4884
# 132 vertex normals

vt 0.2598 0.8283 0.0000
vt 0.2395 0.7212 0.0000
vt 0.2955 0.8016 0.0000
vt 0.7828 0.4268 0.0000
vt 0.8144 0.3572 0.0000
vt 0.8840 0.3923 0.0000
vt 0.8495 0.3569 0.0000
vt 0.8597 0.3154 0.0000
vt 0.9766 0.3138 0.0000
vt 0.9556 0.3468 0.0000
vt 0.9029 0.2756 0.0000
vt 0.6649 0.5998 0.0000
vt 0.6021 0.5723 0.0000
vt 0.6380 0.5152 0.0000
vt 0.6791 0.4452 0.0000
vt 0.6323 0.3992 0.0000
vt 0.7308 0.3539 0.0000
vt 0.6841 0.4486 0.0000
vt 0.7574 0.3466 0.0000
vt 0.7570 0.3056 0.0000
vt 0.8487 0.2648 0.0000
vt 0.7892 0.2579 0.0000
vt 0.8737 0.2062 0.0000
vt 0.8340 0.2213 0.0000
vt 0.9460 0.2286 0.0000
vt 0.6327 0.6835 0.0000
vt 0.9442 0.1375 0.0000
vt 0.6259 0.3959 0.0000
vt 0.5727 0.3525 0.0000
vt 0.6781 0.3268 0.0000
vt 0.6907 0.2903 0.0000
vt 0.7786 0.1996 0.0000
vt 0.7354 0.2488 0.0000
vt 0.7217 0.1949 0.0000
vt 0.6703 0.2249 0.0000
vt 0.7618 0.1450 0.0000
vt 0.8066 0.1690 0.0000
vt 0.8707 0.1241 0.0000
vt 0.6314 0.7530 0.0000
vt 0.6869 0.7353 0.0000
vt 0.6694 0.8066 0.0000
vt 0.6135 0.2718 0.0000
vt 0.6542 0.1974 0.0000
vt 0.5974 0.2017 0.0000
vt 0.7007 0.1134 0.0000
vt 0.6355 0.1536 0.0000
vt 0.7735 0.1088 0.0000
vt 0.8094 0.0647 0.0000
vt 0.8617 0.1118 0.0000
vt 0.7406 0.0536 0.0000
vt 0.2777 0.5932 0.0000
vt 0.2511 0.4896 0.0000
vt 0.3308 0.5070 0.0000
vt 0.5569 0.3402 0.0000
vt 0.5430 0.2396 0.0000
vt 0.5984 0.0918 0.0000
vt 0.4283 0.4019 0.0000
vt 0.4716 0.4729 0.0000
vt 0.3977 0.4804 0.0000
vt 0.3427 0.4033 0.0000
vt 0.3736 0.3473 0.0000
vt 0.3290 0.3589 0.0000
vt 0.3805 0.2404 0.0000
vt 0.4255 0.2966 0.0000
vt 0.3110 0.1161 0.0000
vt 0.3452 0.1964 0.0000
vt 0.3226 0.2165 0.0000
vt 0.2533 0.1292 0.0000
vt 0.3288 0.2881 0.0000
vt 0.4909 0.3827 0.0000
vt 0.2773 0.2727 0.0000
vt 0.2915 0.2366 0.0000
vt 0.2213 0.2009 0.0000
vt 0.5018 0.2767 0.0000
vt 0.5043 0.3688 0.0000
vt 0.4495 0.2278 0.0000
vt 0.1669 0.1278 0.0000
vt 0.2171 0.2439 0.0000
vt 0.2494 0.3228 0.0000
vt 0.1903 0.3244 0.0000
vt 0.3147 0.3812 0.0000
vt 0.2306 0.3626 0.0000
vt 0.2715 0.4064 0.0000
vt 0.5176 0.1666 0.0000
vt 0.3056 0.7173 0.0000
vt 0.4145 0.7263 0.0000
vt 0.3635 0.7872 0.0000
vt 0.3105 0.7665 0.0000
vt 0.0085 0.5326 0.0000
vt 0.0747 0.5526 0.0000
vt 0.0587 0.6148 0.0000
vt 0.1543 0.2135 0.0000
vt 0.1734 0.2852 0.0000
vt 0.0704 0.2280 0.0000
vt 0.0763 0.1628 0.0000
vt 0.1534 0.3636 0.0000
vt 0.2342 0.4498 0.0000
vt 0.1265 0.4503 0.0000
vt 0.0145 0.1874 0.0000
vt 0.0786 0.3138 0.0000
vt 0.0696 0.4132 0.0000
vt 0.1843 0.7969 0.0000
vt 0.3434 0.8917 0.0000
vt 0.2799 0.8824 0.0000
vt 0.2945 0.9349 0.0000
vt 0.8068 0.8568 0.0000
vt 0.7943 0.9176 0.0000
vt 0.7349 0.9344 0.0000
vt 0.8004 0.9846 0.0000
vt 0.8358 0.9312 0.0000
vt 0.7094 0.9080 0.0000
vt 0.2248 0.9847 0.0000
vt 0.1930 0.9072 0.0000
vt 0.8855 0.8621 0.0000
vt 0.5280 0.5033 0.0000
vt 0.4821 0.5988 0.0000
vt 0.1281 0.7139 0.0000
vt 0.1755 0.8653 0.0000
vt 0.1376 0.8075 0.0000
vt 0.1237 0.9164 0.0000
vt 0.1714 0.9881 0.0000
vt 0.8660 0.7953 0.0000
vt 0.4415 0.5069 0.0000
vt 0.0656 0.8777 0.0000
vt 0.1043 0.9877 0.0000
vt 0.9152 0.8023 0.0000
vt 0.9547 0.7710 0.0000
vt 0.9324 0.7309 0.0000
vt 0.0562 0.9722 0.0000
vt 0.4179 0.5816 0.0000
vt 0.3492 0.5007 0.0000
vt 0.0597 0.7472 0.0000
vt 0.0193 0.8215 0.0000
vt 0.3581 0.6272 0.0000
vt 0.5671 0.6629 0.0000
vt 0.5527 0.7026 0.0000
vt 0.6043 0.8088 0.0000
vt 0.6649 0.8786 0.0000
vt 0.5400 0.8641 0.0000
vt 0.5936 0.8995 0.0000
vt 0.4931 0.6576 0.0000
vt 0.4965 0.8506 0.0000
vt 0.4481 0.8813 0.0000
vt 0.4645 0.6979 0.0000
vt 0.4601 0.7733 0.0000
vt 0.4060 0.6745 0.0000
vt 0.3342 0.6895 0.0000
vt 0.4024 0.8925 0.0000
vt 0.0937 0.0722 0.0000
vt 0.1851 0.0692 0.0000
vt 0.1462 0.1205 0.0000
vt 0.6581 0.0164 0.0000
vt 0.2107 0.1040 0.0000
vt 0.5276 0.1765 0.0000
vt 0.9429 0.5972 0.0000
vt 0.9882 0.6437 0.0000
vt 0.9296 0.6344 0.0000
vt 0.9263 0.6981 0.0000
vt 0.5442 0.9482 0.0000
vt 0.9489 0.3878 0.0000
vt 0.9440 0.4843 0.0000
vt 0.8922 0.4753 0.0000
vt 0.3322 0.0264 0.0000
vt 0.2751 0.0154 0.0000
vt 0.2934 0.0966 0.0000
vt 0.8805 0.5475 0.0000
vt 0.8551 0.5848 0.0000
vt 0.8422 0.5046 0.0000
vt 0.8734 0.6438 0.0000
vt 0.1753 0.4669 0.0000
vt 0.1970 0.5304 0.0000
vt 0.8321 0.7001 0.0000
vt 0.8615 0.7458 0.0000
vt 0.4687 0.9855 0.0000
vt 0.0181 0.4811 0.0000
vt 0.4021 0.0682 0.0000
vt 0.3617 0.1452 0.0000
vt 0.4481 0.0383 0.0000
vt 0.4293 0.0100 0.0000
vt 0.8012 0.5960 0.0000
vt 0.8267 0.6512 0.0000
vt 0.7598 0.6823 0.0000
vt 0.8065 0.7666 0.0000
vt 0.4059 0.1259 0.0000
vt 0.4975 0.0947 0.0000
vt 0.4627 0.1577 0.0000
vt 0.5250 0.0137 0.0000
vt 0.5135 0.0521 0.0000
vt 0.7420 0.7318 0.0000
vt 0.5772 0.0268 0.0000
vt 0.5884 0.0722 0.0000
vt 0.0181 0.2793 0.0000
vt 0.6968 0.7386 0.0000
vt 0.7452 0.8040 0.0000
vt 0.6859 0.8036 0.0000
vt 0.2702 0.6616 0.0000
vt 0.2072 0.6041 0.0000
vt 0.2128 0.6896 0.0000
vt 0.1357 0.5223 0.0000
vt 0.1387 0.6162 0.0000
vt 0.1176 0.4622 0.0000
vt 0.0539 0.4949 0.0000
vt 0.0658 0.6954 0.0000
# 203 texture coords

g Meteor_3
usemtl Meteor_3
s 1
f 1/1/1 2/2/2 3/3/3 
f 3/4/3 4/5/4 5/6/5 
f 6/7/6 5/6/5 4/5/4 
f 5/6/5 6/7/6 7/8/7 
f 8/9/8 9/10/9 10/11/10 
f 10/11/10 9/10/9 7/8/7 
f 7/8/7 9/10/9 5/6/5 
f 11/12/11 12/13/12 8/14/8 
f 2/15/2 13/16/13 14/17/14 
f 14/17/14 3/4/3 2/18/2 
f 4/5/4 3/4/3 14/17/14 
f 14/17/14 15/19/15 4/5/4 
f 15/19/15 14/17/14 16/20/16 
f 17/21/17 7/8/7 4/5/4 
f 17/21/17 4/5/4 18/22/18 
f 18/22/18 4/5/4 16/20/16 
f 4/5/4 15/19/15 16/20/16 
f 6/7/6 4/5/4 7/8/7 
f 7/8/7 17/21/17 10/11/10 
f 19/23/19 10/11/10 17/21/17 
f 19/23/19 17/21/17 20/24/20 
f 8/9/8 10/11/10 11/25/11 
f 10/11/10 19/23/19 11/25/11 
f 21/26/21 12/13/12 11/12/11 
f 11/25/11 19/23/19 21/27/21 
f 13/28/13 22/29/22 23/30/23 
f 23/30/23 14/17/14 13/16/13 
f 24/31/24 14/17/14 23/30/23 
f 14/17/14 24/31/24 16/20/16 
f 25/32/25 26/33/26 27/34/27 
f 25/32/25 18/22/18 26/33/26 
f 26/33/26 18/22/18 16/20/16 
f 26/33/26 16/20/16 24/31/24 
f 28/35/28 26/33/26 24/31/24 
f 18/22/18 25/32/25 20/24/20 
f 17/21/17 18/22/18 20/24/20 
f 25/32/25 27/34/27 29/36/29 
f 25/32/25 30/37/30 20/24/20 
f 31/38/31 19/23/19 30/37/30 
f 29/36/29 30/37/30 25/32/25 
f 19/23/19 20/24/20 30/37/30 
f 19/23/19 31/38/31 21/27/21 
f 32/39/32 31/40/31 33/41/33 
f 23/30/23 22/29/22 34/42/34 
f 24/31/24 23/30/23 28/35/28 
f 28/35/28 23/30/23 34/42/34 
f 35/43/35 34/42/34 36/44/36 
f 34/42/34 35/43/35 28/35/28 
f 27/34/27 28/35/28 35/43/35 
f 27/34/27 26/33/26 28/35/28 
f 27/34/27 37/45/37 29/36/29 
f 27/34/27 38/46/38 37/45/37 
f 37/45/37 39/47/39 29/36/29 
f 39/47/39 30/37/30 29/36/29 
f 30/37/30 39/47/39 33/48/33 
f 30/37/30 33/48/33 31/49/31 
f 33/48/33 39/47/39 40/50/40 
f 22/51/22 41/52/41 42/53/42 
f 34/42/34 22/54/22 42/55/42 
f 42/55/42 36/44/36 34/42/34 
f 43/56/43 38/46/38 36/44/36 
f 38/46/38 27/34/27 35/43/35 
f 38/46/38 35/43/35 36/44/36 
f 43/56/43 37/45/37 38/46/38 
f 39/47/39 37/45/37 40/50/40 
f 44/57/44 45/58/45 46/59/46 
f 47/60/47 48/61/48 44/57/44 
f 47/60/47 44/57/44 46/59/46 
f 49/62/49 50/63/50 48/61/48 
f 50/63/50 51/64/51 48/61/48 
f 52/65/52 45/66/45 53/67/53 
f 53/67/53 54/68/54 52/65/52 
f 45/66/45 55/69/55 53/67/53 
f 44/57/44 55/70/55 45/58/45 
f 56/71/56 57/72/57 55/69/55 
f 53/67/53 58/73/58 54/68/54 
f 58/73/58 53/67/53 57/72/57 
f 55/69/55 57/72/57 53/67/53 
f 44/57/44 48/61/48 55/70/55 
f 48/61/48 51/64/51 55/70/55 
f 59/74/59 55/75/55 51/64/51 
f 50/63/50 60/76/60 51/64/51 
f 60/76/60 59/74/59 51/64/51 
f 58/73/58 61/77/61 54/68/54 
f 57/72/57 56/71/56 58/73/58 
f 58/73/58 56/71/56 62/78/62 
f 55/69/55 63/79/63 56/71/56 
f 64/80/64 62/78/62 63/79/63 
f 63/79/63 62/78/62 56/71/56 
f 55/69/55 59/81/59 63/79/63 
f 65/82/65 59/81/59 66/83/66 
f 65/82/65 63/79/63 59/81/59 
f 60/76/60 67/84/67 59/74/59 
f 59/85/59 67/86/67 68/87/68 
f 68/87/68 66/88/66 59/85/59 
f 69/89/69 70/90/70 61/91/61 
f 58/73/58 71/92/71 61/77/61 
f 71/92/71 62/78/62 72/93/72 
f 58/73/58 62/78/62 71/92/71 
f 73/94/73 71/92/71 72/93/72 
f 71/92/71 69/95/69 61/77/61 
f 72/93/72 62/78/62 64/80/64 
f 74/96/74 72/93/72 64/80/64 
f 64/80/64 63/79/63 65/82/65 
f 74/96/74 64/80/64 65/82/65 
f 65/82/65 66/83/66 68/97/68 
f 65/82/65 68/97/68 74/96/74 
f 75/98/75 74/96/74 68/97/68 
f 76/99/76 69/95/69 73/94/73 
f 69/95/69 71/92/71 73/94/73 
f 77/100/77 73/94/73 72/93/72 
f 72/93/72 74/96/74 77/100/77 
f 78/101/78 77/100/77 74/96/74 
f 79/102/79 2/2/2 1/1/1 
f 3/3/3 5/103/5 80/104/80 
f 3/3/3 80/104/80 1/1/1 
f 5/103/5 81/105/81 80/104/80 
f 82/106/82 83/107/83 9/108/9 
f 83/107/83 5/109/5 9/108/9 
f 83/107/83 81/110/81 5/109/5 
f 8/111/8 82/106/82 9/108/9 
f 84/112/84 85/113/85 81/105/81 
f 85/113/85 80/104/80 81/105/81 
f 85/113/85 1/1/1 80/104/80 
f 82/106/82 84/114/84 81/110/81 
f 83/107/83 82/106/82 81/110/81 
f 8/14/8 12/13/12 82/115/82 
f 86/116/86 82/115/82 12/13/12 
f 2/2/2 79/102/79 87/117/87 
f 88/118/88 89/119/89 79/102/79 
f 79/102/79 1/1/1 88/118/88 
f 1/1/1 85/113/85 88/118/88 
f 90/120/90 85/113/85 84/121/84 
f 90/120/90 88/118/88 85/113/85 
f 82/106/82 91/122/91 84/114/84 
f 82/115/82 86/116/86 91/123/91 
f 87/117/87 79/102/79 89/119/89 
f 46/124/46 89/119/89 88/118/88 
f 88/118/88 90/120/90 46/124/46 
f 90/120/90 84/121/84 92/125/92 
f 84/114/84 91/122/91 92/126/92 
f 47/127/47 92/126/92 49/128/49 
f 49/128/49 92/126/92 91/122/91 
f 47/129/47 90/120/90 92/125/92 
f 91/123/91 86/116/86 93/130/93 
f 93/130/93 49/131/49 91/123/91 
f 87/117/87 89/119/89 52/132/52 
f 46/124/46 45/133/45 89/119/89 
f 45/133/45 52/132/52 89/119/89 
f 48/61/48 47/60/47 49/62/49 
f 47/129/47 46/124/46 90/120/90 
f 50/134/50 49/131/49 93/130/93 
f 12/13/12 21/26/21 94/135/94 
f 95/136/95 94/135/94 21/26/21 
f 21/26/21 31/40/31 32/39/32 
f 32/39/32 95/136/95 21/26/21 
f 33/41/33 96/137/96 32/39/32 
f 96/137/96 33/41/33 40/138/40 
f 97/139/97 96/137/96 98/140/98 
f 98/140/98 96/137/96 40/138/40 
f 86/116/86 12/13/12 94/135/94 
f 95/136/95 99/141/99 94/135/94 
f 86/116/86 94/135/94 99/141/99 
f 95/136/95 32/39/32 96/137/96 
f 97/139/97 100/142/100 96/137/96 
f 101/143/101 100/142/100 97/139/97 
f 99/141/99 95/136/95 102/144/102 
f 95/136/95 103/145/103 102/144/102 
f 95/136/95 96/137/96 103/145/103 
f 96/137/96 100/142/100 103/145/103 
f 86/116/86 99/141/99 104/146/104 
f 86/116/86 104/146/104 93/130/93 
f 99/141/99 102/144/102 104/146/104 
f 102/144/102 67/86/67 104/146/104 
f 102/144/102 103/145/103 67/86/67 
f 100/142/100 101/143/101 103/145/103 
f 68/87/68 67/86/67 103/145/103 
f 101/143/101 68/87/68 103/145/103 
f 93/130/93 104/146/104 50/134/50 
f 50/134/50 104/146/104 60/147/60 
f 67/86/67 60/147/60 104/146/104 
f 68/87/68 101/143/101 75/148/75 
f 40/149/40 105/150/105 98/151/98 
f 40/50/40 37/45/37 105/152/105 
f 106/153/106 98/151/98 105/150/105 
f 105/152/105 37/45/37 43/56/43 
f 43/56/43 36/44/36 107/154/107 
f 36/44/36 42/55/42 107/154/107 
f 107/155/107 42/156/42 108/157/108 
f 42/156/42 41/158/41 108/157/108 
f 98/140/98 106/159/106 97/139/97 
f 106/159/106 101/143/101 97/139/97 
f 105/160/105 43/161/43 109/162/109 
f 110/163/110 105/150/105 109/164/109 
f 111/165/111 106/153/106 105/150/105 
f 110/163/110 111/165/111 105/150/105 
f 43/161/43 107/155/107 112/166/112 
f 43/161/43 112/166/112 109/162/109 
f 113/167/113 112/166/112 107/155/107 
f 110/168/110 109/162/109 112/166/112 
f 114/169/114 108/157/108 41/158/41 
f 113/167/113 107/155/107 108/157/108 
f 114/169/114 113/167/113 108/157/108 
f 115/170/115 41/52/41 116/171/116 
f 117/172/117 114/169/114 41/158/41 
f 115/173/115 117/172/117 41/158/41 
f 106/159/106 111/174/111 101/143/101 
f 78/101/78 75/98/75 111/175/111 
f 75/148/75 101/143/101 111/174/111 
f 118/176/118 78/177/78 111/165/111 
f 112/166/112 113/167/113 110/168/110 
f 119/178/119 118/176/118 120/179/120 
f 120/179/120 118/176/118 110/163/110 
f 120/180/120 110/168/110 113/167/113 
f 118/176/118 111/165/111 110/163/110 
f 114/169/114 121/181/121 113/167/113 
f 121/181/121 114/169/114 117/172/117 
f 122/182/122 121/181/121 117/172/117 
f 120/180/120 113/167/113 121/181/121 
f 123/183/123 117/172/117 115/173/115 
f 118/176/118 124/184/124 78/177/78 
f 125/185/125 118/176/118 119/178/119 
f 118/176/118 125/185/125 124/184/124 
f 125/185/125 77/186/77 124/184/124 
f 119/178/119 120/179/120 122/187/122 
f 119/178/119 122/187/122 126/188/126 
f 119/178/119 126/188/126 125/185/125 
f 120/180/120 121/181/121 122/182/122 
f 122/182/122 117/172/117 123/183/123 
f 123/183/123 127/189/127 122/182/122 
f 127/190/127 126/188/126 122/187/122 
f 74/96/74 75/98/75 78/101/78 
f 124/184/124 77/186/77 78/177/78 
f 126/188/126 76/191/76 125/185/125 
f 125/192/125 76/99/76 73/94/73 
f 73/94/73 77/100/77 125/192/125 
f 127/190/127 76/191/76 126/188/126 
f 76/193/76 127/189/127 128/194/128 
f 69/195/69 76/193/76 128/194/128 
f 22/51/22 13/196/13 129/197/129 
f 130/198/130 129/197/129 13/196/13 
f 2/2/2 130/198/130 13/196/13 
f 22/51/22 116/171/116 41/52/41 
f 22/51/22 129/197/129 116/171/116 
f 87/117/87 130/198/130 2/2/2 
f 131/199/131 115/170/115 116/171/116 
f 116/171/116 129/197/129 131/199/131 
f 132/200/132 131/199/131 129/197/129 
f 129/197/129 130/198/130 132/200/132 
f 87/117/87 132/200/132 130/198/130 
f 115/170/115 131/199/131 123/201/123 
f 70/90/70 123/201/123 131/199/131 
f 131/199/131 132/200/132 70/90/70 
f 127/189/127 123/183/123 128/194/128 
f 123/201/123 70/90/70 128/202/128 
f 70/90/70 69/89/69 128/202/128 
f 70/90/70 132/200/132 61/91/61 
f 54/203/54 61/91/61 87/117/87 
f 87/117/87 61/91/61 132/200/132 
f 52/132/52 54/203/54 87/117/87 
# 260 faces

