# 3ds Max Wavefront OBJ Exporter v0.97b - (c)2007 guruware
# File Created: 16.08.2015 23:06:24

mtllib Meteor_2.mtl

#
# object Meteor_2
#

v  -1.5479 -1.8717 2.2353
v  -3.5682 -1.9768 2.0106
v  -1.1281 -2.4926 1.2226
v  0.7444 -2.7830 1.7439
v  0.0502 -1.9189 2.6267
v  1.5777 -2.2016 3.2806
v  2.3489 -3.1790 2.4477
v  2.6963 -3.2676 1.2954
v  3.5640 -2.3110 1.6716
v  -4.4485 -1.5538 0.7677
v  -2.4992 -2.0872 0.4207
v  -1.3778 -2.1044 -0.0299
v  -0.7686 -3.2029 -0.1725
v  0.0318 -3.6828 0.0726
v  0.0438 -3.1226 0.8974
v  1.2172 -3.4253 0.5902
v  2.6301 -3.4799 0.5354
v  3.8254 -2.7811 0.8427
v  -3.2383 -1.7342 -1.2702
v  -1.5856 -2.0730 -0.8889
v  -0.1206 -2.5054 -1.5257
v  1.6716 -2.6540 -1.9470
v  1.9911 -3.4115 -0.3854
v  3.2498 -3.1865 -1.1804
v  -1.3540 -1.4589 -2.7052
v  2.7925 -2.7437 -2.4468
v  3.9184 -1.6473 -1.9795
v  -0.5948 -1.8713 -3.3529
v  0.5980 -2.2138 -3.6761
v  1.7805 -2.3228 -3.4891
v  3.4641 -1.5579 -3.7013
v  -3.5795 1.4179 2.0130
v  -2.4329 2.3718 2.4343
v  -2.7962 2.4313 0.2562
v  -1.0822 2.4912 0.7927
v  -0.2283 2.8994 2.2552
v  -0.1510 2.8291 0.7476
v  2.2249 3.1162 1.8690
v  2.7800 2.8516 2.9044
v  1.3622 1.9869 3.3285
v  0.1132 2.6103 3.2175
v  0.8494 2.9373 1.2639
v  1.1803 3.4774 0.1246
v  1.9770 3.4626 0.3125
v  3.4154 3.3632 0.6942
v  2.5157 3.5146 -0.3276
v  -2.2148 2.4134 -1.1032
v  -3.1410 2.3026 -0.6140
v  -0.9787 3.0490 -0.4231
v  0.8218 3.4224 -0.8210
v  -0.8849 2.7593 -1.8537
v  2.9268 3.6001 -1.5280
v  3.8659 3.0889 -0.5144
v  -3.3407 1.9879 -2.1104
v  -1.5835 3.0115 -2.9485
v  0.4301 2.8397 -2.1796
v  1.5108 3.0765 -1.6799
v  1.4178 3.1143 -2.7332
v  2.3576 3.2432 -2.8039
v  3.6704 2.5299 -2.1893
v  -2.2977 2.3737 -3.7754
v  -0.2925 2.6453 -3.6059
v  1.7051 2.5492 -3.7008
v  -3.1616 -1.6280 2.9380
v  -0.4121 -0.9219 2.9240
v  3.4707 -2.0649 3.0869
v  2.4168 -1.3717 3.3409
v  -1.4168 -0.3815 3.3610
v  -3.3564 -0.2089 3.0746
v  1.0189 -0.7681 3.9254
v  0.0105 -0.0242 4.0550
v  1.7175 0.3034 4.1088
v  3.4987 0.1036 3.4674
v  -4.2217 -1.3052 2.3563
v  -3.3002 0.6441 2.7263
v  -1.0928 1.3736 3.3310
v  -1.9030 0.9115 3.5386
v  -0.3412 0.8187 3.9925
v  0.7758 1.3451 4.2842
v  2.5018 1.0307 3.7111
v  3.1561 1.7212 3.3196
v  4.0873 -0.7222 2.1085
v  4.0762 -1.5007 1.4633
v  4.1717 -1.8886 -0.7397
v  3.7362 0.3695 0.7284
v  4.1594 -0.0317 1.6608
v  4.3744 -0.4547 -0.2148
v  4.2893 -0.5386 -1.1674
v  4.1225 -0.3054 -2.9317
v  2.7985 -0.3576 -4.1502
v  3.5607 1.6831 1.8489
v  3.8997 0.5532 -1.3453
v  3.9800 1.1597 -0.7998
v  3.5778 1.3791 0.0374
v  4.0669 0.5229 -2.3254
v  3.5869 1.2286 -3.5966
v  3.5165 2.1825 1.3411
v  2.9136 1.9192 -3.7888
v  1.4447 -1.0721 -3.8489
v  0.3817 -0.3474 -3.6988
v  -1.2905 0.0974 -3.5766
v  -2.5583 -0.2099 -2.6259
v  1.0464 0.5945 -4.2636
v  -0.4248 1.0581 -3.9675
v  2.4476 1.0877 -4.2290
v  -3.5298 0.3590 -2.5659
v  0.9600 1.6121 -3.8459
v  -1.1097 1.7508 -3.8019
v  -2.4468 1.5114 -3.9999
v  -3.8149 -0.5628 -1.5678
v  -4.1516 -0.8610 -0.1265
v  -3.7301 0.2127 -0.6555
v  -3.6316 -0.1567 0.7365
v  -3.5368 1.1167 -0.0944
# 114 vertices

vn 0.0187 -0.7626 0.6466
vn -0.2985 -0.9419 0.1542
vn -0.2952 -0.9102 0.2904
vn -0.3203 -0.8228 0.4696
vn -0.3392 -0.6569 0.6734
vn -0.1783 -0.5998 0.7801
vn 0.0796 -0.8692 0.4880
vn 0.3258 -0.9166 0.2316
vn 0.7682 -0.5692 0.2932
vn -0.8513 -0.5169 -0.0898
vn -0.2263 -0.9676 -0.1117
vn -0.5372 -0.8425 -0.0387
vn -0.5909 -0.7755 -0.2222
vn 0.0463 -0.9649 -0.2587
vn -0.2069 -0.8220 0.5306
vn -0.0933 -0.9950 -0.0345
vn 0.2992 -0.9507 -0.0814
vn 0.7809 -0.6119 0.1255
vn -0.4387 -0.7972 -0.4146
vn -0.3016 -0.9070 -0.2938
vn -0.2377 -0.9089 -0.3426
vn -0.1482 -0.9513 -0.2702
vn -0.0618 -0.9767 -0.2054
vn 0.4501 -0.8672 -0.2128
vn -0.5091 -0.6616 -0.5506
vn 0.3386 -0.8516 -0.4001
vn 0.8709 -0.4214 -0.2528
vn -0.4473 -0.5884 -0.6736
vn -0.1982 -0.7237 -0.6611
vn 0.0565 -0.7241 -0.6873
vn 0.5727 -0.4353 -0.6946
vn -0.8843 0.4374 0.1634
vn -0.3664 0.8280 0.4244
vn -0.5068 0.8604 0.0537
vn -0.1912 0.9766 0.0988
vn -0.2021 0.9244 0.3236
vn -0.2645 0.9417 0.2082
vn -0.0509 0.9734 0.2235
vn 0.3050 0.7277 0.6143
vn 0.0781 0.6486 0.7571
vn -0.1647 0.8052 0.5697
vn -0.1602 0.9811 0.1087
vn -0.1538 0.9722 0.1767
vn -0.0606 0.9750 0.2137
vn 0.6056 0.7573 0.2445
vn 0.1309 0.9890 0.0694
vn -0.3369 0.9409 -0.0337
vn -0.7172 0.6962 0.0306
vn -0.2789 0.9596 0.0376
vn -0.1600 0.9733 -0.1647
vn -0.1237 0.9902 -0.0653
vn 0.3241 0.9223 -0.2106
vn 0.9051 0.4252 0.0004
vn -0.8585 0.4905 -0.1497
vn -0.1850 0.9762 -0.1136
vn -0.1595 0.9732 -0.1656
vn -0.2402 0.9376 -0.2514
vn -0.1700 0.9558 -0.2400
vn 0.3024 0.8121 -0.4990
vn 0.8532 0.4155 -0.3152
vn -0.4863 0.6348 -0.6004
vn -0.0061 0.7499 -0.6615
vn 0.0583 0.5509 -0.8325
vn -0.1159 -0.5645 0.8173
vn -0.2404 -0.5737 0.7830
vn 0.6422 -0.4413 0.6268
vn 0.1989 -0.2471 0.9484
vn -0.0876 -0.3853 0.9186
vn -0.4354 0.0250 0.8999
vn -0.1095 -0.4150 0.9032
vn -0.2372 -0.3620 0.9015
vn 0.2245 -0.1313 0.9656
vn 0.7143 0.0085 0.6997
vn -0.9616 -0.0228 0.2737
vn -0.6462 0.3347 0.6858
vn -0.2600 0.4719 0.8425
vn -0.2152 0.2057 0.9547
vn -0.4372 0.2031 0.8761
vn 0.0002 0.3613 0.9324
vn 0.2939 0.3036 0.9063
vn 0.6747 0.3612 0.6437
vn 0.9456 -0.1025 0.3088
vn 0.9608 -0.2066 0.1848
vn 0.9334 -0.3459 -0.0951
vn 0.9198 0.3919 0.0173
vn 0.9675 0.2143 0.1341
vn 0.9948 0.0686 0.0757
vn 0.9945 0.0001 -0.1048
vn 0.9049 -0.0665 -0.4205
vn 0.2919 -0.1448 -0.9454
vn 0.9428 0.2782 0.1836
vn 0.9808 0.1917 -0.0361
vn 0.9911 0.1269 0.0401
vn 0.9785 0.0598 0.1972
vn 0.9763 0.2030 -0.0745
vn 0.7860 0.1902 -0.5883
vn 0.9675 0.1544 0.2003
vn 0.4188 0.5142 -0.7485
vn -0.0808 -0.1663 -0.9828
vn -0.1812 -0.2075 -0.9613
vn -0.2859 -0.3733 -0.8826
vn -0.4630 -0.4895 -0.7390
vn -0.1434 -0.1009 -0.9845
vn -0.0869 -0.0585 -0.9945
vn 0.1556 0.1955 -0.9683
vn -0.8563 -0.1372 -0.4980
vn -0.0435 0.2775 -0.9597
vn 0.0550 0.2282 -0.9721
vn -0.5370 -0.1479 -0.8305
vn -0.8474 -0.2497 -0.4686
vn -0.9818 0.0325 -0.1873
vn -0.9566 0.2673 -0.1164
vn -0.9674 0.2530 -0.0119
vn -0.9601 0.2797 -0.0040
# 114 vertex normals

vt 0.3657 0.8214 0.0000
vt 0.3419 0.9180 0.0000
vt 0.3089 0.7942 0.0000
vt 0.3378 0.6985 0.0000
vt 0.3904 0.7439 0.0000
vt 0.4217 0.6660 0.0000
vt 0.3677 0.6147 0.0000
vt 0.3108 0.5953 0.0000
vt 0.3385 0.5356 0.0000
vt 0.2811 0.9649 0.0000
vt 0.2653 0.8649 0.0000
vt 0.2437 0.8130 0.0000
vt 0.2404 0.7559 0.0000
vt 0.2518 0.7189 0.0000
vt 0.2927 0.7270 0.0000
vt 0.2738 0.6671 0.0000
vt 0.2732 0.6000 0.0000
vt 0.2882 0.5337 0.0000
vt 0.1819 0.9030 0.0000
vt 0.1986 0.8184 0.0000
vt 0.1621 0.7410 0.0000
vt 0.1433 0.6499 0.0000
vt 0.2272 0.6289 0.0000
vt 0.1859 0.5689 0.0000
vt 0.1024 0.8185 0.0000
vt 0.1202 0.5938 0.0000
vt 0.6500 0.4972 0.0000
vt 0.6627 0.5881 0.0000
vt 0.5996 0.5593 0.0000
vt 0.0709 0.7759 0.0000
vt 0.0559 0.7031 0.0000
vt 0.0672 0.7652 0.0000
vt 0.0659 0.6446 0.0000
vt 0.0366 0.5580 0.0000
vt 0.8411 0.9229 0.0000
vt 0.7657 0.9330 0.0000
vt 0.7930 0.8276 0.0000
vt 0.7076 0.8474 0.0000
vt 0.6547 0.9137 0.0000
vt 0.6601 0.8395 0.0000
vt 0.5368 0.8801 0.0000
vt 0.5047 0.9296 0.0000
vt 0.5731 0.9783 0.0000
vt 0.6401 0.9636 0.0000
vt 0.6080 0.8591 0.0000
vt 0.5941 0.7973 0.0000
vt 0.5551 0.8031 0.0000
vt 0.4836 0.8161 0.0000
vt 0.5315 0.7689 0.0000
vt 0.7747 0.7569 0.0000
vt 0.8168 0.7871 0.0000
vt 0.7037 0.7829 0.0000
vt 0.6166 0.7545 0.0000
vt 0.7103 0.7116 0.0000
vt 0.5179 0.7072 0.0000
vt 0.4631 0.7545 0.0000
vt 0.8410 0.7144 0.0000
vt 0.7489 0.6626 0.0000
vt 0.6485 0.6870 0.0000
vt 0.5922 0.7050 0.0000
vt 0.6015 0.6552 0.0000
vt 0.5570 0.6490 0.0000
vt 0.4790 0.6445 0.0000
vt 0.7944 0.6239 0.0000
vt 0.6920 0.6208 0.0000
vt 0.5952 0.5985 0.0000
vt 0.3923 0.9062 0.0000
vt 0.0486 0.2092 0.0000
vt 0.0991 0.2330 0.0000
vt 0.0456 0.2899 0.0000
vt 0.4412 0.5742 0.0000
vt 0.0510 0.1256 0.0000
vt 0.0555 0.0313 0.0000
vt 0.0911 0.0834 0.0000
vt 0.0765 0.3680 0.0000
vt 0.1391 0.2788 0.0000
vt 0.1442 0.3757 0.0000
vt 0.1280 0.1533 0.0000
vt 0.1644 0.2025 0.0000
vt 0.1806 0.1195 0.0000
vt 0.1633 0.0290 0.0000
vt 0.0900 0.4287 0.0000
vt 0.1875 0.3841 0.0000
vt 0.2306 0.2713 0.0000
vt 0.2011 0.3058 0.0000
vt 0.2031 0.2216 0.0000
vt 0.2324 0.1655 0.0000
vt 0.2139 0.0757 0.0000
vt 0.2783 0.3549 0.0000
vt 0.3004 0.2204 0.0000
vt 0.2942 0.1520 0.0000
vt 0.2758 0.1190 0.0000
vt 0.2447 0.0356 0.0000
vt 0.2293 0.4161 0.0000
vt 0.3320 0.2591 0.0000
vt 0.3064 0.0406 0.0000
vt 0.3834 0.5335 0.0000
vt 0.8554 0.5062 0.0000
vt 0.8893 0.5849 0.0000
vt 0.8181 0.5822 0.0000
vt 0.8151 0.5345 0.0000
vt 0.7693 0.5881 0.0000
vt 0.7072 0.5223 0.0000
vt 0.5663 0.4748 0.0000
vt 0.9353 0.4851 0.0000
vt 0.8086 0.4298 0.0000
vt 0.8439 0.4681 0.0000
vt 0.7498 0.4616 0.0000
vt 0.7040 0.4530 0.0000
vt 0.6237 0.4201 0.0000
vt 0.4805 0.1196 0.0000
vt 0.3935 0.1204 0.0000
vt 0.4461 0.0594 0.0000
vt 0.8807 0.3866 0.0000
vt 0.9529 0.4051 0.0000
vt 0.7101 0.3959 0.0000
vt 0.7445 0.3749 0.0000
vt 0.7912 0.3738 0.0000
vt 0.6625 0.3877 0.0000
vt 0.4342 0.1983 0.0000
vt 0.6107 0.3348 0.0000
vt 0.8639 0.3550 0.0000
vt 0.7844 0.2874 0.0000
vt 0.6950 0.2923 0.0000
vt 0.9537 0.3431 0.0000
vt 0.8501 0.2905 0.0000
vt 0.4583 0.6675 0.0000
vt 0.6035 0.2875 0.0000
vt 0.5334 0.5681 0.0000
vt 0.5872 0.0261 0.0000
vt 0.5467 0.0827 0.0000
vt 0.5285 0.0196 0.0000
vt 0.6010 0.1173 0.0000
vt 0.6476 0.0420 0.0000
vt 0.6830 0.1399 0.0000
vt 0.6976 0.0533 0.0000
vt 0.7576 0.1121 0.0000
vt 0.5651 0.1669 0.0000
vt 0.6375 0.1902 0.0000
vt 0.4969 0.1887 0.0000
vt 0.8045 0.1406 0.0000
vt 0.4712 0.2319 0.0000
vt 0.5689 0.2198 0.0000
vt 0.6287 0.2708 0.0000
vt 0.6693 0.2268 0.0000
vt 0.7351 0.2160 0.0000
vt 0.3486 0.4766 0.0000
vt 0.2570 0.5112 0.0000
vt 0.2441 0.4690 0.0000
vt 0.3210 0.3987 0.0000
vt 0.5303 0.2644 0.0000
vt 0.7265 0.2592 0.0000
vt 0.8084 0.0196 0.0000
vt 0.8334 0.0797 0.0000
vt 0.4356 0.3245 0.0000
vt 0.3662 0.3491 0.0000
vt 0.3621 0.2845 0.0000
vt 0.4773 0.2845 0.0000
vt 0.3623 0.9617 0.0000
vt 0.4140 0.3830 0.0000
vt 0.4814 0.3627 0.0000
vt 0.5565 0.2955 0.0000
vt 0.4444 0.4264 0.0000
vt 0.5491 0.4337 0.0000
vt 0.4222 0.4888 0.0000
vt 0.4667 0.4990 0.0000
# 166 texture coords

g Meteor_2
usemtl Meteor_2
s 1
f 1/1/1 2/2/2 3/3/3 
f 4/4/4 5/5/5 3/3/3 
f 3/3/3 5/5/5 1/1/1 
f 6/6/6 4/4/4 7/7/7 
f 4/4/4 6/6/6 5/5/5 
f 8/8/8 9/9/9 7/7/7 
f 2/2/2 10/10/10 11/11/11 
f 3/3/3 2/2/2 11/11/11 
f 12/12/12 13/13/13 3/3/3 
f 3/3/3 11/11/11 12/12/12 
f 13/13/13 14/14/14 3/3/3 
f 15/15/15 4/4/4 3/3/3 
f 15/15/15 3/3/3 14/14/14 
f 15/15/15 14/14/14 16/16/16 
f 4/4/4 15/15/15 16/16/16 
f 8/8/8 7/7/7 16/16/16 
f 17/17/17 8/8/8 16/16/16 
f 16/16/16 7/7/7 4/4/4 
f 18/18/18 9/9/9 8/8/8 
f 18/18/18 8/8/8 17/17/17 
f 10/10/10 19/19/19 11/11/11 
f 20/20/20 11/11/11 19/19/19 
f 11/11/11 20/20/20 12/12/12 
f 20/20/20 21/21/21 13/13/13 
f 13/13/13 12/12/12 20/20/20 
f 21/21/21 14/14/14 13/13/13 
f 16/16/16 21/21/21 22/22/22 
f 16/16/16 22/22/22 23/23/23 
f 14/14/14 21/21/21 16/16/16 
f 17/17/17 16/16/16 23/23/23 
f 23/23/23 22/22/22 24/24/24 
f 18/18/18 17/17/17 23/23/23 
f 24/24/24 18/18/18 23/23/23 
f 25/25/25 20/20/20 19/19/19 
f 20/20/20 25/25/25 21/21/21 
f 22/22/22 26/26/26 24/24/24 
f 27/27/27 24/28/24 26/29/26 
f 25/25/25 28/30/28 21/21/21 
f 29/31/29 21/21/21 28/32/28 
f 21/21/21 29/31/29 22/22/22 
f 30/33/30 22/22/22 29/31/29 
f 26/26/26 30/33/30 31/34/31 
f 22/22/22 30/33/30 26/26/26 
f 32/35/32 33/36/33 34/37/34 
f 35/38/35 34/37/34 33/36/33 
f 33/36/33 36/39/36 35/38/35 
f 37/40/37 35/38/35 36/39/36 
f 38/41/38 36/39/36 39/42/39 
f 40/43/40 36/39/36 41/44/41 
f 38/41/38 42/45/42 36/39/36 
f 36/39/36 42/45/42 37/40/37 
f 37/40/37 42/45/42 43/46/43 
f 38/41/38 44/47/44 42/45/42 
f 44/47/44 43/46/43 42/45/42 
f 45/48/45 44/47/44 38/41/38 
f 46/49/46 44/47/44 45/48/45 
f 47/50/47 48/51/48 34/37/34 
f 47/50/47 34/37/34 49/52/49 
f 35/38/35 49/52/49 34/37/34 
f 37/40/37 43/46/43 49/52/49 
f 37/40/37 49/52/49 35/38/35 
f 50/53/50 51/54/51 49/52/49 
f 44/47/44 46/49/46 43/46/43 
f 52/55/52 50/53/50 43/46/43 
f 50/53/50 49/52/49 43/46/43 
f 52/55/52 46/49/46 53/56/53 
f 52/55/52 43/46/43 46/49/46 
f 47/50/47 54/57/54 48/51/48 
f 47/50/47 49/52/49 51/54/51 
f 51/54/51 55/58/55 47/50/47 
f 50/53/50 56/59/56 51/54/51 
f 52/55/52 57/60/57 50/53/50 
f 50/53/50 57/60/57 56/59/56 
f 58/61/58 56/59/56 57/60/57 
f 59/62/59 52/55/52 60/63/60 
f 58/61/58 57/60/57 52/55/52 
f 59/62/59 58/61/58 52/55/52 
f 55/58/55 61/64/61 54/57/54 
f 55/58/55 54/57/54 47/50/47 
f 62/65/62 51/54/51 56/59/56 
f 62/65/62 55/58/55 51/54/51 
f 62/65/62 56/59/56 58/61/58 
f 59/62/59 63/66/63 58/61/58 
f 2/2/2 1/1/1 64/67/64 
f 5/68/5 65/69/65 1/70/1 
f 7/7/7 66/71/66 6/6/6 
f 6/72/6 66/73/66 67/74/67 
f 64/75/64 1/70/1 68/76/68 
f 69/77/69 64/75/64 68/76/68 
f 70/78/70 71/79/71 65/69/65 
f 65/69/65 68/76/68 1/70/1 
f 71/79/71 68/76/68 65/69/65 
f 65/69/65 5/68/5 70/78/70 
f 70/78/70 5/68/5 6/72/6 
f 6/72/6 67/74/67 70/78/70 
f 72/80/72 70/78/70 67/74/67 
f 73/81/73 67/74/67 66/73/66 
f 73/81/73 72/80/72 67/74/67 
f 74/82/74 69/77/69 75/83/75 
f 76/84/76 77/85/77 68/76/68 
f 77/85/77 75/83/75 69/77/69 
f 77/85/77 69/77/69 68/76/68 
f 68/76/68 71/79/71 78/86/78 
f 79/87/79 78/86/78 71/79/71 
f 72/80/72 79/87/79 71/79/71 
f 78/86/78 76/84/76 68/76/68 
f 70/78/70 72/80/72 71/79/71 
f 73/81/73 80/88/80 72/80/72 
f 76/84/76 33/89/33 77/85/77 
f 77/85/77 33/89/33 75/83/75 
f 76/84/76 78/86/78 41/90/41 
f 79/87/79 41/90/41 78/86/78 
f 72/80/72 80/88/80 79/87/79 
f 41/90/41 79/87/79 40/91/40 
f 79/87/79 80/88/80 40/92/40 
f 80/88/80 73/81/73 81/93/81 
f 81/93/81 40/92/40 80/88/80 
f 75/83/75 33/89/33 32/94/32 
f 36/95/36 33/89/33 76/84/76 
f 76/84/76 41/90/41 36/95/36 
f 39/42/39 36/39/36 40/43/40 
f 81/93/81 39/96/39 40/92/40 
f 7/7/7 9/97/9 66/71/66 
f 82/98/82 66/99/66 9/100/9 
f 83/101/83 9/100/9 18/102/18 
f 18/102/18 24/28/24 84/103/84 
f 24/28/24 27/27/27 84/103/84 
f 26/29/26 31/104/31 27/27/27 
f 73/105/73 66/99/66 82/98/82 
f 82/98/82 9/100/9 83/101/83 
f 18/102/18 84/103/84 83/101/83 
f 85/106/85 86/107/86 87/108/87 
f 87/108/87 86/107/86 83/101/83 
f 86/107/86 82/98/82 83/101/83 
f 83/101/83 84/103/84 87/108/87 
f 84/103/84 27/27/27 88/109/88 
f 88/109/88 87/108/87 84/103/84 
f 27/27/27 31/104/31 89/110/89 
f 89/110/89 88/109/88 27/27/27 
f 90/111/90 89/112/89 31/113/31 
f 82/98/82 86/107/86 73/105/73 
f 91/114/91 73/105/73 86/107/86 
f 91/114/91 81/115/81 73/105/73 
f 87/108/87 88/109/88 92/116/92 
f 92/116/92 93/117/93 87/108/87 
f 93/117/93 94/118/94 85/106/85 
f 93/117/93 85/106/85 87/108/87 
f 88/109/88 89/110/89 95/119/95 
f 88/109/88 95/119/95 92/116/92 
f 89/112/89 90/111/90 96/120/96 
f 96/121/96 95/119/95 89/110/89 
f 86/107/86 85/106/85 91/114/91 
f 94/118/94 97/122/97 85/106/85 
f 85/106/85 97/122/97 91/114/91 
f 53/123/53 94/118/94 93/117/93 
f 53/123/53 97/122/97 94/118/94 
f 92/116/92 95/119/95 60/124/60 
f 93/117/93 92/116/92 60/124/60 
f 60/124/60 95/119/95 96/121/96 
f 60/124/60 53/123/53 93/117/93 
f 81/115/81 91/114/91 39/125/39 
f 39/125/39 91/114/91 97/122/97 
f 45/48/45 38/41/38 39/42/39 
f 45/126/45 39/125/39 97/122/97 
f 45/126/45 97/122/97 53/123/53 
f 53/56/53 46/49/46 45/48/45 
f 52/55/52 53/56/53 60/127/60 
f 60/124/60 96/121/96 98/128/98 
f 59/62/59 60/63/60 98/129/98 
f 29/130/29 99/131/99 30/132/30 
f 100/133/100 29/130/29 28/134/28 
f 30/132/30 99/131/99 31/113/31 
f 31/113/31 99/131/99 90/111/90 
f 29/130/29 100/133/100 99/131/99 
f 100/133/100 28/134/28 101/135/101 
f 28/134/28 25/136/25 101/135/101 
f 25/136/25 102/137/102 101/135/101 
f 90/111/90 99/131/99 100/133/100 
f 90/111/90 100/133/100 103/138/103 
f 104/139/104 103/138/103 100/133/100 
f 105/140/105 90/111/90 103/138/103 
f 100/133/100 101/135/101 104/139/104 
f 102/137/102 106/141/106 101/135/101 
f 90/111/90 105/140/105 96/120/96 
f 96/120/96 105/140/105 98/142/98 
f 107/143/107 98/142/98 105/140/105 
f 103/138/103 107/143/107 105/140/105 
f 103/138/103 104/139/104 107/143/107 
f 104/139/104 62/144/62 107/143/107 
f 108/145/108 62/144/62 104/139/104 
f 104/139/104 101/135/101 109/146/109 
f 104/139/104 109/146/109 108/145/108 
f 101/135/101 106/141/106 109/146/109 
f 54/147/54 61/148/61 109/149/109 
f 54/147/54 109/149/109 106/150/106 
f 98/142/98 107/143/107 63/151/63 
f 59/62/59 98/129/98 63/66/63 
f 63/151/63 107/143/107 62/144/62 
f 63/66/63 62/65/62 58/61/58 
f 108/145/108 61/152/61 62/144/62 
f 55/58/55 62/65/62 61/64/61 
f 108/145/108 109/146/109 61/152/61 
f 102/137/102 25/136/25 19/153/19 
f 110/154/110 102/137/102 19/153/19 
f 111/155/111 110/156/110 19/157/19 
f 10/158/10 111/155/111 19/157/19 
f 74/159/74 10/10/10 2/2/2 
f 74/159/74 2/2/2 64/67/64 
f 112/160/112 110/156/110 111/155/111 
f 113/161/113 111/155/111 10/158/10 
f 10/158/10 74/162/74 113/161/113 
f 74/82/74 64/75/64 69/77/69 
f 102/137/102 110/154/110 106/141/106 
f 114/163/114 106/150/106 112/160/112 
f 112/160/112 106/150/106 110/156/110 
f 111/155/111 113/161/113 114/163/114 
f 112/160/112 111/155/111 114/163/114 
f 32/164/32 114/163/114 113/161/113 
f 75/83/75 32/94/32 74/82/74 
f 32/164/32 113/161/113 74/162/74 
f 106/150/106 114/163/114 54/147/54 
f 48/165/48 54/147/54 114/163/114 
f 34/166/34 48/165/48 114/163/114 
f 114/163/114 32/164/32 34/166/34 
# 224 faces

